<svg width="179" height="98" viewBox="0 0 179 98" fill="none" xmlns="http://www.w3.org/2000/svg">
<path d="M149.784 97.6835H37.5459C35.3751 97.6835 33.1239 97.4423 31.0336 96.9599C28.9432 96.4775 27.6568 94.387 28.1392 92.3769C28.6216 90.2865 30.6316 89.0001 32.722 89.4825C34.3299 89.8041 35.9379 90.0453 37.5459 90.0453H149.864C156.216 90.0453 161.361 84.8995 161.361 78.5478C161.361 72.5176 156.698 67.5327 150.668 67.1307C149.623 67.1307 148.658 66.5678 147.935 65.6834C147.291 64.8794 146.97 63.7538 147.131 62.7085C147.291 61.8241 147.291 60.8593 147.291 59.8945C147.291 47.9145 137.563 38.1859 125.583 38.1859C123.252 38.1859 121.001 38.5075 118.83 39.2311C117.785 39.5527 116.659 39.4723 115.775 38.9095C114.81 38.3467 114.167 37.4622 113.926 36.417C109.986 19.6933 95.112 7.95462 77.9065 7.95462C58.289 7.95462 42.0483 23.3114 40.9227 42.9296C40.8423 44.9396 39.1539 46.5477 37.1439 46.5477C32.3199 46.6281 27.7372 48.3165 23.9584 51.2914C22.27 52.6583 19.858 52.3366 18.5716 50.7286C17.2048 49.0402 17.5264 46.6281 19.1344 45.3416C23.3152 41.9648 28.3 39.8743 33.5259 39.1507C36.4203 17.1205 55.3142 0.316406 77.9065 0.316406C88.0369 0.316406 97.926 3.7737 105.805 10.1255C112.559 15.5124 117.624 22.829 120.358 30.9497C122.046 30.628 123.815 30.4672 125.583 30.4672C141.824 30.4672 155.01 43.6532 155.01 59.8945C155.01 59.8945 155.01 59.9749 155.01 60.0553C163.13 62.3065 168.999 69.7839 168.999 78.5478C168.999 89.1609 160.397 97.7639 149.784 97.7639V97.6835Z" fill="#002ACE"/>
<path d="M11.8992 67.6131H22.512C23.2356 67.6131 23.7984 67.0503 23.7984 66.3267V57.0804C23.7984 56.3568 23.2356 55.794 22.512 55.794H13.266C12.5424 55.794 11.9796 56.3568 11.9796 57.0804V67.6935L11.8992 67.6131Z" fill="#002ACE"/>
<path d="M1.28639 79.5127H11.8991L11.8992 67.6131L1.28639 67.6131C0.562797 67.6131 0 68.1759 0 68.8996V78.1458C0 78.8694 0.562797 79.4323 1.28639 79.4323V79.5127Z" fill="#002ACE"/>
<path d="M13.266 91.4122H22.512C23.2356 91.4122 23.7984 90.8494 23.7984 90.1258V80.8796C23.7984 80.1559 23.2356 79.5931 22.512 79.5931H11.8992V90.2062C11.8992 90.9298 12.462 91.4927 13.1856 91.4927L13.266 91.4122Z" fill="#002ACE"/>
<path d="M168.05 28.9998C161.977 28.9998 157 24.0998 157 17.9998C157 11.8998 161.977 6.99976 168.05 6.99976C174.122 6.99976 179 11.9998 179 17.9998C179 23.9998 174.122 28.9998 168.05 28.9998ZM168.05 8.39976C162.774 8.39976 158.692 12.6998 158.692 17.8998C158.692 23.0998 162.873 27.4998 168.05 27.4998C173.226 27.4998 177.407 23.1998 177.407 17.8998C177.407 12.5998 173.226 8.39976 168.05 8.39976ZM171.633 24.3998C171.235 23.7998 171.335 22.7998 171.235 22.0998C171.235 19.6998 170.439 19.0998 168.05 19.0998H164.964V24.3998H163.371V11.7998H168.747C170.937 11.7998 173.027 12.6998 173.027 15.1998C173.027 16.7998 172.231 17.8998 170.738 18.2998C172.43 18.7998 172.729 19.8998 172.828 21.4998C172.828 22.2998 172.828 23.6998 173.226 24.3998H171.633ZM168.348 13.2998H164.864V17.6998H168.149C169.643 17.6998 171.335 17.2998 171.335 15.3998C171.335 13.4998 169.643 13.3998 168.249 13.3998L168.348 13.2998Z" fill="#002ACE"/>
</svg>
