<svg width="86" height="87" viewBox="0 0 86 87" fill="none" xmlns="http://www.w3.org/2000/svg">
<circle cx="43" cy="43.5" r="43" fill="#002ACE"/>
<path d="M62.9958 59.7223C62.8294 60.4717 62.5476 61.1582 61.9509 61.6779C61.3916 62.1654 60.7508 62.4614 60.0047 62.4656C58.314 62.4758 56.6215 62.5065 54.9316 62.4554C53.3462 62.4078 52.084 61.1752 52.0093 59.5939C51.9448 58.2278 51.944 56.854 52.0093 55.4887C52.0857 53.8827 53.3843 52.6773 55.0072 52.605C55.4451 52.5855 55.8848 52.6025 56.3372 52.6025C56.4229 51.1249 56.445 49.7163 55.3976 48.5432C54.5981 47.6475 53.6093 47.1576 52.4168 47.1482C49.828 47.1286 47.2384 47.1414 44.6489 47.1423C44.5979 47.1423 44.5479 47.155 44.4664 47.1652V52.5965C44.8016 52.5965 45.1344 52.5948 45.4679 52.5965C47.4464 52.6067 48.779 53.9278 48.779 55.9081C48.779 57.224 48.8044 58.5442 48.706 59.8542C48.6033 61.2169 47.3233 62.4086 45.9526 62.4478C44.1846 62.498 42.4132 62.5005 40.6461 62.4512C39.1438 62.4086 37.8638 61.1455 37.7985 59.6441C37.7382 58.2516 37.7391 56.8531 37.7959 55.4598C37.8587 53.9261 39.1395 52.7097 40.7021 52.6118C41.1409 52.5846 41.5831 52.6076 42.0567 52.6076V47.1635C41.9506 47.1559 41.8386 47.1414 41.7266 47.1414C39.0852 47.1397 36.4439 47.1329 33.8025 47.1431C31.7595 47.1508 30.1019 48.4778 29.7836 50.4283C29.6724 51.1122 29.7658 51.8293 29.7658 52.5974C30.023 52.5974 30.3158 52.5974 30.6078 52.5974C32.7492 52.5991 34.0342 53.8827 34.0359 56.0238C34.0359 57.1194 34.0486 58.215 34.0325 59.3098C34.0054 61.0987 32.7619 62.4137 30.9821 62.4656C29.3439 62.5133 27.7024 62.5099 26.0652 62.4648C24.4364 62.4197 23.1879 61.2994 23.0741 59.6824C22.9723 58.2431 22.9757 56.7851 23.0826 55.3467C23.1989 53.7832 24.4754 52.6799 26.0414 52.6067C26.4658 52.5872 26.8927 52.6033 27.3655 52.6033C27.3655 52.1295 27.3621 51.7025 27.3655 51.2755C27.4011 47.5199 30.1223 44.8047 33.8704 44.7945C36.4337 44.7877 38.9969 44.7928 41.5602 44.7928C41.7155 44.7928 41.87 44.7928 42.0584 44.7928V39.3606C41.2733 39.3606 40.4959 39.3776 39.7201 39.3555C39.0733 39.3368 38.4054 39.3615 37.7866 39.2075C36.4362 38.8723 35.5408 37.7631 35.5196 36.3749C35.4788 33.7549 35.4695 31.1324 35.5196 28.5133C35.5518 26.8163 36.8156 25.5701 38.5191 25.5292C40.6257 25.4782 42.7341 25.5097 44.8424 25.5088C45.9093 25.5088 46.977 25.4816 48.0422 25.5267C49.7423 25.5981 51.0129 26.8622 51.0401 28.5703C51.0808 31.1383 51.0825 33.7081 51.0401 36.2762C51.0104 38.0923 49.6294 39.3428 47.7418 39.3589C46.663 39.3683 45.5842 39.3606 44.4715 39.3606V44.7928C44.637 44.7928 44.7898 44.7928 44.9425 44.7928C47.3759 44.7928 49.8094 44.7707 52.2419 44.7987C54.9469 44.8302 56.9364 46.0602 58.1374 48.5067C58.5567 49.3607 58.7205 50.2837 58.7112 51.2355C58.707 51.6753 58.7112 52.1151 58.7112 52.5965C59.0346 52.5965 59.3172 52.6084 59.5998 52.5948C61.3526 52.5098 62.714 53.6947 62.9525 55.2352C62.9584 55.2718 62.9839 55.3058 63 55.3407V59.7223H62.9958Z" fill="#E4E4E4"/>
</svg>
