<svg width="86" height="86" viewBox="0 0 86 86" fill="none" xmlns="http://www.w3.org/2000/svg">
<circle cx="43" cy="43" r="43" fill="#002ACE"/>
<path d="M43.5114 64.9599C43.1229 65.0178 42.7204 65.0143 42.318 64.9406C40.6725 64.6396 39.2783 63.2547 39.0958 61.5556C38.9028 59.7652 39.7737 58.1846 41.3949 57.4404C41.6669 57.3149 41.7226 57.1595 41.7217 56.8875C41.7121 54.581 41.7165 52.2746 41.7165 49.9682C41.7165 49.8295 41.7165 49.6917 41.7165 49.5417H35.1773C35.1773 50.5272 35.1947 51.4847 35.1695 52.4414C35.159 52.8512 35.2486 53.0759 35.6606 53.276C37.4703 54.1571 38.27 56.2828 37.5685 58.1916C36.874 60.0803 34.8678 61.1343 32.9199 60.6332C31.3457 60.2286 30.1514 58.8358 29.9889 57.2139C29.8194 55.5201 30.7303 53.9149 32.2602 53.19C32.3949 53.1259 32.5992 52.996 32.6009 52.8925C32.6252 51.7796 32.6166 50.6659 32.6166 49.5013C30.081 49.6356 27.8184 49.0168 25.9287 47.3107C24.0434 45.6099 23.0551 43.4693 23.0021 40.9163C22.9577 38.7714 23.6279 36.8529 24.9917 35.2108C26.7441 33.1019 29.0223 32.0724 31.7482 32.032C31.8056 31.437 31.836 30.8657 31.9194 30.3031C32.6713 25.233 36.6367 21.468 41.8077 21.0362C46.625 20.6342 51.1658 23.6155 52.7513 28.3346C52.9999 29.0744 53.3128 29.2833 54.036 29.3438C59.4947 29.8037 63.6626 35.1309 62.9125 40.6337C62.2519 45.4756 58.5429 49.0441 53.7248 49.46C53.4501 49.4837 53.3641 49.5741 53.3684 49.8488C53.3823 50.737 53.3893 51.6252 53.3658 52.5133C53.3563 52.8819 53.444 53.0812 53.8082 53.2541C55.5771 54.0931 56.4255 56.159 55.8135 58.0266C55.1912 59.9241 53.2858 61.065 51.3553 60.6964C49.7342 60.3875 48.3991 58.9841 48.2035 57.3842C47.9818 55.5657 48.8432 53.9395 50.453 53.204C50.7381 53.0741 50.8233 52.9214 50.8103 52.6274C50.7894 52.1553 50.8042 51.6822 50.8042 51.2092C50.8042 50.6554 50.8042 50.1016 50.8042 49.5461H44.3041C44.292 49.6233 44.2807 49.6645 44.2807 49.7067C44.2789 52.1421 44.285 54.5775 44.2694 57.0121C44.2676 57.3096 44.4406 57.3587 44.6327 57.4491C46.1278 58.1548 47.0413 59.7178 46.911 61.3423C46.7623 63.1932 45.2681 64.6966 43.5114 64.9582V64.9599ZM41.6356 61.0466C41.6356 61.7952 42.2328 62.4148 42.9681 62.4288C43.7113 62.4429 44.3572 61.8039 44.3589 61.0518C44.3606 60.2935 43.7331 59.6713 42.9725 59.6792C42.225 59.6862 41.6365 60.2892 41.6356 61.0466ZM33.8787 58.1662C34.6271 58.1749 35.2451 57.5755 35.259 56.8269C35.2729 56.0625 34.6471 55.4165 33.8943 55.4192C33.1572 55.4209 32.5392 56.044 32.5348 56.7892C32.5305 57.5378 33.1346 58.1574 33.8795 58.1662H33.8787ZM52.0681 58.167C52.8147 58.1749 53.4319 57.5764 53.451 56.8251C53.4701 56.073 52.8295 55.4148 52.082 55.4174C51.3405 55.4209 50.7338 56.0361 50.7303 56.7892C50.7268 57.5492 51.3188 58.1583 52.0689 58.1662L52.0681 58.167Z" fill="#E4E4E4"/>
</svg>
