<svg width="46" height="109" viewBox="0 0 46 109" fill="none" xmlns="http://www.w3.org/2000/svg">
<path d="M1.08201 108.761C0.933679 106.257 0.883298 103.741 1.07641 101.247C1.3087 98.2525 4.10458 95.84 7.13275 95.7588C8.03392 95.7346 8.28673 95.326 7.89118 94.533C7.2139 93.1729 6.52543 91.8211 5.86214 90.4553C5.39756 89.4982 5.45635 89.403 6.54503 89.4002C9.65436 89.3919 12.7609 89.3974 15.8702 89.3974C23.8884 89.3974 31.9067 89.3974 39.9221 89.3974C41.285 89.3974 41.3214 89.4562 40.7309 90.6457C40.0256 92.0702 39.3287 93.4975 38.5927 94.9053C38.2513 95.5573 38.3856 95.8036 39.1216 95.756C42.5724 95.5266 45.9336 98.6471 45.6901 102.621C45.5642 104.661 45.623 106.713 45.5978 108.759H1.08481L1.08201 108.761Z" fill="#002ACE"/>
<path d="M23.3819 83.1872C17.7677 83.1872 12.1508 83.1872 6.53662 83.1872C5.33039 83.1872 5.28561 83.1284 5.76418 82.0117C8.82594 74.8471 11.188 67.467 12.5678 59.7874C12.7665 58.6764 12.9876 57.5681 12.9484 56.429C12.8588 53.9634 11.1768 51.9372 8.72797 51.5929C7.59451 51.4334 7.26988 50.9716 7.34825 49.8857C7.4406 48.5871 7.40982 47.2718 7.35665 45.9676C7.32307 45.128 7.6393 44.8649 8.46211 44.8733C11.605 44.9069 14.748 44.8873 17.8909 44.8873C24.5657 44.8873 31.2405 44.8873 37.9154 44.8873C39.3091 44.8873 39.3119 44.8929 39.3147 46.295C39.3175 47.672 39.2979 49.0489 39.3231 50.4259C39.3343 51.0444 39.1552 51.3718 38.4891 51.5201C34.6717 52.3737 33.2416 54.6183 33.8797 58.4581C35.2315 66.5798 37.6663 74.3741 40.8904 81.9362C41.4109 83.1564 41.3886 83.1872 40.02 83.1872C34.4758 83.1872 28.9316 83.1872 23.3874 83.1872H23.3819Z" fill="#002ACE"/>
<path d="M38.1645 38.6154H8.52927C8.54606 38.5091 8.54046 38.4139 8.56285 38.4055C11.5882 37.3924 12.5929 35.0779 11.2916 32.1701C9.5312 28.2407 7.78482 24.303 6.04124 20.3653C5.58506 19.3382 5.64664 19.2402 6.7913 19.2374C10.7822 19.229 14.7731 19.1926 18.7641 19.2598C19.8695 19.2794 20.1746 18.9212 20.1074 17.8689C20.0234 16.5675 20.0626 15.2549 20.0962 13.9507C20.113 13.2706 19.8695 12.9992 19.1755 13.0159C17.6922 13.0495 16.2088 13.0019 14.7255 13.0327C14.0119 13.0467 13.7012 12.8088 13.7208 12.0616C13.7572 10.5447 13.7544 9.02503 13.7208 7.50535C13.704 6.78049 13.9643 6.48943 14.7032 6.50902C16.1501 6.5454 17.5998 6.48663 19.0467 6.52861C19.8136 6.551 20.1298 6.31311 20.1018 5.50709C20.0514 4.09656 20.1186 2.68043 20.0766 1.26989C20.0542 0.47507 20.2865 0.111242 21.1485 0.144826C22.5954 0.2008 24.0451 0.192404 25.4921 0.144826C26.3009 0.119638 26.6451 0.374318 26.6087 1.22791C26.5527 2.5321 26.6591 3.84468 26.5751 5.14606C26.508 6.18997 26.7962 6.62097 27.9157 6.537C29.2143 6.44185 30.5297 6.55939 31.8339 6.50062C32.7322 6.46144 33.0009 6.81967 32.9673 7.67327C32.9142 9.04742 32.8945 10.43 32.9729 11.8041C33.0317 12.8228 32.6091 13.0775 31.6799 13.0383C30.3394 12.9796 28.9932 13.0691 27.6554 13.0075C26.7878 12.9684 26.5528 13.3126 26.5835 14.1214C26.6339 15.4256 26.6479 16.7382 26.5807 18.0396C26.5332 18.9631 26.8298 19.2626 27.773 19.2514C31.8702 19.2066 35.9675 19.229 40.062 19.2318C41.4221 19.2318 41.4613 19.271 40.7784 20.4968C38.699 24.2386 36.8995 28.1064 35.3714 32.1029C34.1876 35.2039 35.1027 37.2833 38.1673 38.6098L38.1645 38.6154Z" fill="#002ACE"/>
</svg>
