<svg width="114" height="109" viewBox="0 0 114 109" fill="none" xmlns="http://www.w3.org/2000/svg">
<path d="M113.673 60.1734C113.908 70.0612 106.81 79.0085 96.6817 81.6869C95.3663 82.0339 95.2544 81.9164 95.1928 80.4163C94.454 62.9049 80.6509 47.4758 63.3187 44.7891C43.2885 41.6854 24.5654 54.5565 20.1351 74.4831C19.6621 76.6101 19.3347 78.7594 19.3291 80.948C19.3291 81.7708 19.1416 82.2886 18.0809 82.1207C9.64846 80.7885 2.51742 73.9065 1.11808 65.6896C-0.370818 56.9494 3.86639 48.4302 11.8342 44.2853C12.7242 43.8236 12.9845 43.303 12.9817 42.3431C12.9537 34.003 18.635 27.3421 26.8351 26.0855C28.2429 25.87 29.701 25.8309 31.0919 26.0883C32.1498 26.2842 32.5724 25.8896 33.0482 25.0724C36.5773 18.9937 41.6122 14.6278 48.1303 11.9802C65.7312 4.83239 85.876 16.0747 89.0749 34.8062C89.6067 37.9156 88.8118 38.0191 92.8363 38.0835C102.682 38.2374 111.957 46.6334 113.423 56.5799C113.608 57.8281 113.714 59.0736 113.675 60.1706L113.673 60.1734Z" fill="#002ACE"/>
<path d="M57.2847 98.5713C48.6564 98.5713 40.0281 98.5573 31.3998 98.5853C29.7458 98.5909 28.6347 97.9556 27.921 96.4387C20.5185 80.7073 27.4285 61.0018 43.0255 53.423C61.9054 44.249 84.1017 54.9147 88.7531 75.429C90.3679 82.5517 89.657 89.4784 86.7436 96.1896C86.0188 97.8576 84.8769 98.5993 83.0438 98.5881C74.4574 98.5461 65.8711 98.5685 57.2847 98.5685V98.5713ZM39.0933 92.361C40.8117 92.361 42.5273 92.3414 44.2457 92.3722C44.923 92.3834 45.2812 92.2015 45.4883 91.4766C46.9296 86.4474 50.2713 83.4556 55.3956 82.4733C56.1457 82.3306 56.669 82.0087 57.128 81.393C59.8791 77.6987 62.6666 74.0297 65.4401 70.3522C66.2461 69.2831 67.0437 68.2056 67.8665 67.1477C68.4123 66.4425 69.1288 66.1682 69.9768 66.546C70.78 66.9043 70.9927 67.6067 70.9143 68.4239C70.8863 68.715 70.8276 69.0033 70.766 69.2887C69.6101 74.7741 68.4543 80.2623 67.2872 85.745C67.1249 86.5034 67.0269 87.2142 67.5083 87.9111C68.2304 88.955 68.7453 90.1109 69.0168 91.3423C69.2015 92.1763 69.6465 92.3862 70.4329 92.3806C73.741 92.3526 77.0518 92.3442 80.3598 92.3862C81.219 92.3974 81.6248 92.0923 81.8907 91.2835C83.2005 87.3178 83.6147 83.2625 83.0326 79.1429C80.9895 64.6345 67.5615 54.1283 52.7117 56.8262C36.846 59.7089 27.504 76.235 32.6928 91.4095C32.9334 92.1147 33.3113 92.4002 34.0641 92.3806C35.7377 92.3358 37.4141 92.3666 39.0906 92.3666L39.0933 92.361Z" fill="#002ACE"/>
<path d="M57.3575 66.4928C57.2763 67.2541 57.7046 68.3568 57.17 69.1292C56.6215 69.9184 55.4572 69.5378 54.5756 69.7281C49.191 70.8924 45.0181 75.4598 44.4976 80.8892C44.3856 82.0619 44.0218 82.6272 42.74 82.5013C41.5786 82.3893 40.3975 82.4397 39.2277 82.4873C38.3461 82.5237 38.0382 82.157 38.0802 81.3007C38.2761 77.1866 39.7035 73.5343 42.2782 70.3578C45.5303 66.3473 49.7591 63.9964 54.8779 63.2716C55.3313 63.2072 55.7986 63.238 56.2548 63.1988C57.0609 63.1288 57.4079 63.4759 57.3631 64.2875C57.3267 64.9564 57.3547 65.6253 57.3547 66.4872L57.3575 66.4928Z" fill="#002ACE"/>
</svg>
