<svg width="101" height="109" viewBox="0 0 101 109" fill="none" xmlns="http://www.w3.org/2000/svg">
<path d="M44.0275 78.6072C44.6516 78.3553 45.1105 78.4393 45.5583 78.4393C59.8372 78.4337 74.1133 78.4365 88.3921 78.4309C88.8763 78.4309 89.3772 78.4309 89.8446 78.3161C90.6171 78.1286 91.0033 77.5773 90.9781 76.7713C90.9529 76.01 90.5527 75.551 89.8222 75.3523C89.2709 75.2012 88.714 75.2404 88.157 75.2404C72.935 75.2404 57.7158 75.2404 42.4938 75.2404C42.1803 75.2404 41.8641 75.2292 41.5506 75.2404C40.9601 75.2572 40.7894 75.0277 41.0497 74.4735C41.3883 73.7459 41.6682 72.9902 42.0348 72.2766C42.3678 71.6245 42.3175 71.1459 41.7493 70.6226C40.6718 69.629 39.6615 68.5655 38.6316 67.5216C38.4413 67.3285 38.1055 67.1494 38.1978 66.8555C38.3154 66.4805 38.7212 66.5869 39.0178 66.5869C42.894 66.5785 46.7674 66.5813 50.6435 66.5785C52.3031 66.5785 53.0224 66.1167 53.0336 65.0588C53.0448 64.0093 52.2696 63.4915 50.6575 63.4915C43.6748 63.4915 36.6949 63.4747 29.7122 63.5111C28.7383 63.5167 28.0806 63.3068 27.8875 62.2825C27.6776 61.1742 26.9919 60.9167 25.92 60.9503C23.4796 61.0287 21.0335 61.0007 18.5903 60.9615C17.815 60.9475 17.3197 61.149 17.1322 61.9439C17.0538 62.2797 16.8243 62.5848 16.7683 62.9234C16.4801 64.6642 15.2263 65.3527 13.7318 65.8228C12.6011 66.1783 11.3641 65.3331 11.3641 64.1492C11.3585 58.1097 11.3753 52.0701 11.3473 46.0306C11.3417 45.1294 11.644 44.7264 12.5451 44.788C12.8586 44.8104 13.172 44.788 13.4883 44.788C41.9732 44.788 70.461 44.788 98.9459 44.788C99.2594 44.788 99.5756 44.8076 99.8891 44.788C100.703 44.7376 100.958 45.1126 100.958 45.9158C100.939 61.6948 100.95 77.4737 100.939 93.2527C100.939 95.4468 99.3601 97.0057 97.1548 97.0057C79.2124 97.0141 61.2673 97.0057 43.325 97.0253C42.5973 97.0253 42.116 96.835 41.8977 96.1129C41.8165 95.847 41.7269 95.5644 41.559 95.3489C40.4172 93.8852 41.1084 92.511 41.7773 91.1621C42.144 90.4204 42.9556 90.3532 43.6552 90.1993C44.0219 90.1181 44.4193 90.1713 44.8027 90.1713C59.325 90.1713 73.8474 90.1713 88.3697 90.1713C88.7895 90.1713 89.2149 90.2105 89.6235 90.1377C90.4799 89.9894 91.0089 89.4968 90.9837 88.5705C90.9585 87.6413 90.4407 87.1739 89.5368 87.118C89.1198 87.0928 88.7 87.0984 88.2802 87.0984C74.701 87.0984 61.1218 87.0984 47.5398 87.0984C46.3457 87.0984 45.7477 86.5004 45.7458 85.3044C45.7458 83.7679 45.6983 82.2315 45.7626 80.6978C45.8018 79.7714 45.6003 79.1277 44.5984 78.9346C44.4473 78.9066 44.3157 78.7751 44.0331 78.61L44.0275 78.6072ZM37.0839 54.8212C39.8742 54.8212 42.6673 54.8212 45.4576 54.8212C47.481 54.8212 49.5045 54.838 51.5279 54.7932C52.4543 54.7736 53.0728 54.102 53.0224 53.2568C52.9692 52.3584 52.4403 51.8714 51.5615 51.7679C51.2844 51.7343 51.0046 51.7511 50.7247 51.7511C41.6878 51.7511 32.6508 51.7511 23.6139 51.7511C23.2669 51.7511 22.9086 51.7287 22.57 51.7987C21.8955 51.9414 21.4505 52.3724 21.347 53.0665C21.2434 53.7605 21.5429 54.2951 22.1418 54.6421C22.5532 54.88 23.0234 54.8184 23.474 54.8184C28.0106 54.8212 32.5445 54.8184 37.0811 54.8212H37.0839ZM82.3581 69.2484C82.666 69.2736 83.0354 69.0917 83.3657 68.8118C85.6606 66.8807 87.9667 64.9636 90.2392 63.0074C91.2943 62.0978 91.2971 61.1826 90.242 60.2703C88.0003 58.3308 85.7278 56.4277 83.4468 54.533C82.5876 53.8221 81.5885 53.8669 81.0232 54.5609C80.4495 55.2634 80.567 56.0862 81.4346 56.8503C82.666 57.9334 83.931 58.9745 85.1876 60.0268C87.1215 61.6444 87.1159 61.6332 85.1792 63.2396C83.8638 64.3311 82.5624 65.4394 81.2807 66.5673C80.7489 67.0347 80.497 67.6364 80.8105 68.3528C81.0764 68.9629 81.5605 69.2428 82.3553 69.2484H82.3581ZM68.9161 54.0292C68.4711 54.004 68.0737 54.2811 67.6959 54.6001C65.5101 56.4445 63.3103 58.272 61.1414 60.1359C59.882 61.2162 59.8876 62.0586 61.1638 63.1557C63.3327 65.0196 65.5297 66.8527 67.7239 68.6831C68.5914 69.4079 69.5794 69.4247 70.1531 68.7754C70.7296 68.1233 70.5869 67.1186 69.7557 66.3798C68.6054 65.3638 67.4272 64.3787 66.2546 63.3908C64.1304 61.608 64.1332 61.6192 66.2658 59.8504C67.5 58.8261 68.7174 57.7794 69.932 56.7327C70.5365 56.2122 70.6345 55.5293 70.3574 54.8268C70.1279 54.2475 69.6158 54.0264 68.9189 54.0264L68.9161 54.0292ZM73.5731 71.5013C74.3147 71.3922 74.7709 70.8381 74.9864 70.0292C76.4194 64.6446 77.8523 59.2599 79.2908 53.8753C79.3832 53.5338 79.4475 53.2036 79.3104 52.8538C79.0557 52.2073 78.5911 51.8043 77.9026 51.7819C77.105 51.7539 76.5789 52.2129 76.3634 52.9517C75.9156 54.491 75.5126 56.0414 75.0956 57.5863C74.0489 61.4877 73.0022 65.389 71.9639 69.2932C71.642 70.505 72.3417 71.5377 73.5731 71.4985V71.5013Z" fill="#002ACE"/>
<path d="M45.0462 16.5269C30.6666 16.5269 16.2898 16.5269 1.91016 16.5269C0.796284 16.5269 0.239347 15.9737 0.239347 14.8673C0.239347 12.494 0.228153 10.1208 0.244945 7.74748C0.258938 5.50014 1.80661 3.93288 4.04555 3.86851C4.49893 3.85451 4.95232 3.86291 5.40571 3.86291C31.9652 3.86291 58.5246 3.86291 85.0813 3.86291C88.4537 3.86291 89.8166 5.23706 89.8194 8.64025C89.8194 10.8036 89.8222 12.967 89.8194 15.1304C89.8166 16.4877 89.7858 16.5241 88.3921 16.5241C73.9425 16.5241 59.4957 16.5241 45.0462 16.5241V16.5269ZM30.8177 10.2747C30.8905 9.19719 30.0425 8.25124 28.9398 8.17567C27.7531 8.09731 26.8352 8.90053 26.7736 10.0704C26.7176 11.1311 27.5684 12.1106 28.6319 12.2114C29.6926 12.3121 30.7421 11.3802 30.8149 10.2719L30.8177 10.2747ZM10.197 10.1991C10.2082 11.355 11.1318 12.2617 12.2569 12.2198C13.3036 12.1806 14.1936 11.229 14.1964 10.1487C14.1964 9.02647 13.2588 8.13929 12.1029 8.17007C10.9723 8.20086 10.1886 9.03487 10.1998 10.1991H10.197ZM22.472 10.1291C22.4636 8.99009 21.638 8.17007 20.4962 8.17007C19.4215 8.17007 18.4559 9.07125 18.428 10.1068C18.4 11.1647 19.4103 12.217 20.4626 12.2198C21.5737 12.2254 22.4804 11.2822 22.472 10.1291Z" fill="#002ACE"/>
<path d="M56.1429 41.7038C41.7969 41.7038 27.4509 41.7038 13.1049 41.7038C11.9425 41.7038 11.3604 41.1068 11.3585 39.9127C11.3585 37.7129 11.3501 35.516 11.3585 33.3162C11.3697 30.7834 12.7774 29.2693 15.2934 29.0734C15.6741 29.0426 16.0603 29.0538 16.4437 29.0538C42.9724 29.0538 69.501 29.0538 96.0269 29.051C96.7266 29.051 97.4234 29.0594 98.1063 29.2329C99.682 29.6303 100.885 31.0073 100.913 32.6137C100.961 35.3368 100.916 38.06 100.939 40.7803C100.944 41.4519 100.681 41.7458 100.012 41.701C99.6652 41.6786 99.3153 41.701 98.9655 41.701C84.6894 41.701 70.4134 41.701 56.1373 41.701L56.1429 41.7038ZM23.3424 37.4051C24.4871 37.4079 25.3435 36.5962 25.3771 35.4796C25.4079 34.3741 24.4619 33.389 23.3564 33.3778C22.3013 33.3666 21.3498 34.2985 21.3302 35.3564C21.3078 36.5291 22.167 37.4023 23.3452 37.4051H23.3424ZM41.9508 35.4404C41.9564 34.3069 41.0217 33.3582 39.919 33.3778C38.8891 33.3946 37.9096 34.3713 37.9012 35.39C37.8928 36.4983 38.8303 37.4079 39.9834 37.4051C41.1252 37.4051 41.948 36.5822 41.9508 35.4432V35.4404ZM33.6192 35.4656C33.6388 34.2985 32.8495 33.4225 31.7357 33.3778C30.6106 33.333 29.6702 34.2537 29.673 35.404C29.673 36.5683 30.4735 37.3911 31.6153 37.4023C32.7684 37.4135 33.5996 36.613 33.6192 35.4656Z" fill="#002ACE"/>
<path d="M45.0378 19.5915C59.423 19.5915 73.8082 19.5915 88.1906 19.5915C89.2746 19.5915 89.8176 20.127 89.8194 21.1979C89.8194 22.3846 89.7662 23.574 89.8362 24.7578C89.8922 25.7486 89.4808 26.0872 88.5488 25.9893C88.2046 25.9529 87.852 25.9837 87.5021 25.9837C63.5175 25.9837 39.53 25.9837 15.5453 25.9837C12.0218 25.9837 9.34065 27.9903 8.47026 31.2284C8.25756 32.0204 8.29954 32.8208 8.29954 33.6212C8.29394 43.7105 8.28275 53.8025 8.31633 63.8917C8.31913 64.9832 8.06165 65.806 7.23604 66.5617C5.76953 67.905 4.38139 69.3352 3.01004 70.7765C2.42791 71.3894 1.98012 71.3166 1.43158 70.7849C0.603176 69.9873 0.228153 69.0273 0.23375 67.8799C0.247743 64.7369 0.236549 61.594 0.236549 58.4539C0.236549 46.0586 0.236549 33.666 0.236549 21.2707C0.236549 20.1531 0.785089 19.5933 1.88217 19.5915C16.2674 19.5915 30.6526 19.5915 45.035 19.5915H45.0378Z" fill="#002ACE"/>
<path d="M34.6183 100.526C33.9634 100.241 33.3057 100 32.6928 99.6756C31.9148 99.2614 31.2123 99.2334 30.4343 99.7148C29.5751 100.249 28.6235 100.644 27.6412 100.876C26.796 101.078 26.3874 101.568 26.0739 102.351C25.0468 104.923 25.7969 104.503 22.8471 104.545C22.0802 104.557 21.3106 104.515 20.5438 104.554C19.8777 104.587 19.4523 104.33 19.3207 103.686C18.9457 101.867 17.9242 100.734 16.0379 100.445C15.7692 100.403 15.4781 100.294 15.271 100.123C13.9305 99.0263 12.5871 99.2726 11.2633 100.115C10.4153 100.652 9.81922 100.42 9.19512 99.7092C8.43667 98.8444 7.59147 98.0552 6.76027 97.2604C6.36006 96.8769 6.14176 96.4767 6.4804 95.9786C7.65304 94.2546 7.57188 92.567 6.38244 90.8962C6.34326 90.8402 6.32367 90.7674 6.31248 90.7003C6.02142 88.8699 4.93273 87.84 3.14158 87.4846C2.40552 87.3391 2.14245 86.8549 2.16764 86.1104C2.20682 84.9238 2.19842 83.7372 2.17043 82.5505C2.15644 81.8732 2.35795 81.3639 3.06321 81.224C4.92993 80.8489 5.71356 79.6343 6.43842 77.9047C7.23604 75.9988 7.66424 74.3868 6.43842 72.604C6.14456 72.1786 6.36565 71.826 6.6959 71.5013C7.66704 70.5498 8.63818 69.5926 9.58413 68.6131C9.98994 68.1933 10.4265 68.0842 10.8883 68.4004C12.5451 69.5339 14.0312 69.1421 15.8196 68.42C17.6527 67.6812 18.9709 66.8611 19.3627 64.8629C19.4831 64.2528 19.9588 64.0625 20.5466 64.0653C21.8032 64.0765 23.0598 64.0765 24.3164 64.0653C24.9545 64.0597 25.4219 64.2947 25.545 64.9496C25.9088 66.8891 27.227 67.6392 28.9678 68.3612C30.7981 69.1225 32.3598 69.5675 34.0866 68.378C34.5819 68.0366 34.9989 68.2605 35.3795 68.6467C36.3087 69.5926 37.2407 70.5386 38.195 71.4566C38.6176 71.8624 38.7072 72.2906 38.3881 72.7552C37.2603 74.4008 37.5849 75.8757 38.3545 77.6724C39.1382 79.5 39.9134 80.9133 41.9816 81.2799C42.4994 81.3723 42.6813 81.7809 42.6757 82.3014C42.6589 83.628 42.6533 84.9546 42.6785 86.2812C42.6897 86.9025 42.4462 87.3083 41.8501 87.4258C39.9246 87.8008 39.1746 89.1134 38.4105 90.8346C37.5737 92.7181 37.2659 94.2938 38.4329 96.0373C38.6372 96.3424 38.6456 96.6922 38.3433 96.9917C37.2547 98.072 36.1716 99.1635 35.0773 100.241C34.9597 100.356 34.789 100.414 34.6127 100.515L34.6183 100.526ZM13.1217 84.3305C13.1189 89.4996 17.2525 93.6977 22.3825 93.7284C27.5125 93.762 31.8392 89.4577 31.814 84.3473C31.7916 79.1613 27.6664 75.0165 22.5084 74.9969C17.2497 74.9773 13.1273 79.0774 13.1217 84.3305Z" fill="#002ACE"/>
</svg>
