<svg width="125" height="109" viewBox="0 0 125 109" fill="none" xmlns="http://www.w3.org/2000/svg">
<path d="M0.156189 59.3156C0.785891 55.4843 2.03691 51.8908 4.36261 48.7394C8.17721 43.5647 13.24 40.391 19.6042 39.3387C19.9624 39.2799 20.3123 39.1932 20.6677 39.1204C11.9974 37.4104 6.62114 30.0135 7.36839 21.6482C8.02887 14.2457 14.6366 7.86476 21.8907 7.41417C30.8633 6.85724 37.4122 13.0115 38.8927 20.1845C40.4264 27.6178 36.1528 36.4113 26.9843 38.8657C27.9667 39.2659 28.9238 39.1092 29.839 39.2435C33.0826 39.7249 36.0212 41.0543 38.9179 42.4844C45.2121 45.5965 51.4951 48.7282 57.7586 51.8964C58.6346 52.3385 59.0376 52.277 59.491 51.345C61.59 47.0295 63.7646 42.7475 65.9195 38.4571C66.2078 37.8806 66.4988 37.2985 66.8683 36.7723C68.0185 35.1407 69.9384 34.6845 71.6792 35.5857C73.3416 36.4449 74.0721 38.4151 73.392 40.2595C73.2241 40.7128 73.0002 41.1438 72.7847 41.5776C70.1511 46.8475 67.5232 52.1174 64.87 57.3762C64.4894 58.1318 64.3886 58.8399 64.537 59.6907C65.816 66.9756 58.3211 73.2027 51.386 70.5943C47.4511 69.1166 43.8436 66.928 40.0598 65.1257C38.7108 64.482 38.7136 64.4652 38.7136 65.9541C38.7136 78.6657 38.708 91.3773 38.7192 104.089C38.7192 105.332 38.5877 106.515 37.7229 107.484C36.8917 108.413 35.8337 108.796 34.5911 108.793C27.0459 108.782 19.4979 108.799 11.9526 108.782C9.31627 108.777 7.84418 107.279 7.83858 104.626C7.82459 98.5335 7.81057 92.438 7.85535 86.3453C7.86375 85.2818 7.58388 84.7052 6.56237 84.2239C3.5314 82.791 1.51915 80.4065 0.542408 77.1768C0.424863 76.7906 0.287732 76.4128 0.161792 76.0293C0.161792 70.46 0.161792 64.8906 0.161792 59.3212L0.156189 59.3156Z" fill="#002ACE"/>
<path d="M85.4822 0.148806C94.48 0.148806 103.481 0.132014 112.478 0.154404C118.104 0.168397 122.467 3.56039 123.914 8.96464C124.168 9.91059 124.213 10.8733 124.213 11.8445C124.213 25.9666 124.23 40.0915 124.205 54.2137C124.194 60.9473 119.232 65.8953 112.503 65.9317C107.096 65.9597 101.689 65.9373 96.2824 65.9401C95.1461 65.9401 94.7804 66.4905 95.1853 67.5913C99.484 79.2898 103.786 90.9855 108.082 102.684C108.249 103.137 108.406 103.596 108.529 104.064C109.014 105.902 108.045 107.817 106.299 108.502C104.578 109.18 102.624 108.511 101.723 106.84C100.802 105.13 100.282 103.249 99.6128 101.436C95.412 90.0451 91.2307 78.6489 87.0635 67.2471C86.7585 66.4131 86.4254 65.9065 85.3843 65.8981C84.3012 65.8869 84.0465 66.4859 83.7555 67.2947C79.2356 79.7712 74.6989 92.2393 70.1623 104.71C69.9412 105.318 69.7229 105.928 69.4458 106.507C68.5335 108.402 66.5632 109.224 64.7049 108.514C62.841 107.8 61.839 105.86 62.5023 103.865C63.5294 100.764 64.6825 97.7051 65.7992 94.6378C69.1212 85.5029 72.4516 76.3708 75.7793 67.2387C76.2242 66.0185 76.1766 65.9541 74.8781 65.9429C73.9489 65.9345 73.0197 65.9093 72.0934 65.9485C71.3042 65.9793 71.1223 65.6491 71.265 64.9214C71.5784 63.3401 71.8079 61.7477 71.626 60.1217C71.5588 59.5311 71.9031 59.0386 72.1549 58.5348C74.4974 53.8414 76.8399 49.1509 79.188 44.4603C81.2059 40.4302 81.2787 36.484 78.6535 32.675C74.4331 26.5543 64.9931 26.7055 60.9966 32.9801C59.2391 35.7424 57.9629 38.765 56.5131 41.6924C55.987 42.7559 55.528 43.0413 54.4141 42.434C52.22 41.2362 49.9614 40.1531 47.7057 39.0756C46.9445 38.7118 46.6422 38.2192 46.645 37.3852C46.6646 29.0731 46.6254 20.7611 46.6674 12.4462C46.6926 7.59888 48.6209 3.77589 53.012 1.41381C54.6716 0.515433 56.4712 0.143209 58.3659 0.143209C67.4056 0.157202 76.4425 0.148806 85.4822 0.148806ZM85.4822 15.9921V15.9865C83.6267 15.9865 81.7712 15.9865 79.9157 15.9865C75.3174 15.9865 70.7192 15.9697 66.121 16.0033C64.0276 16.0173 62.6479 17.3663 62.5807 19.3449C62.5107 21.4439 64.1256 22.9216 66.5492 22.9216C79.1769 22.9272 91.8017 22.9244 104.429 22.9216C104.712 22.9216 104.995 22.9272 105.275 22.8965C107.071 22.6978 108.356 21.2648 108.361 19.4597C108.37 17.3467 107.01 16.0061 104.726 15.9977C98.3114 15.9725 91.8968 15.9893 85.4851 15.9893L85.4822 15.9921ZM96.7581 50.0968C99.4169 50.0968 102.076 50.1248 104.734 50.0884C107.015 50.0576 108.367 48.731 108.361 46.6208C108.353 44.5806 106.889 43.1785 104.678 43.1701C99.4421 43.1505 94.2057 43.1533 88.9694 43.1701C86.6969 43.1757 85.208 44.5918 85.2052 46.6796C85.2052 48.7031 86.6521 50.0688 88.9078 50.094C91.5246 50.122 94.1442 50.0996 96.7609 50.0996L96.7581 50.0968ZM96.8141 36.5036C99.4365 36.5036 102.059 36.5204 104.681 36.498C106.909 36.4784 108.359 35.0959 108.361 33.0445C108.361 30.993 106.912 29.5965 104.687 29.5881C99.4421 29.5685 94.1973 29.5685 88.9498 29.5881C86.6885 29.5965 85.2276 30.9538 85.2024 32.9801C85.1772 35.0847 86.6353 36.4784 88.947 36.498C91.5694 36.5204 94.1917 36.5036 96.8141 36.5036Z" fill="#002ACE"/>
</svg>
