<svg width="86" height="86" viewBox="0 0 86 86" fill="none" xmlns="http://www.w3.org/2000/svg">
<circle cx="43" cy="43" r="43" fill="#002ACE"/>
<path d="M30.6312 20.0008C33.4408 20.0008 36.2505 20.0008 39.0601 20.0008C39.0924 20.0008 39.1247 20.0032 39.157 20.0008C39.2343 19.9937 39.2625 20.0329 39.257 20.1083C39.2552 20.1314 39.257 20.155 39.257 20.1786C39.257 26.0245 39.257 31.8701 39.257 37.716C39.257 37.8317 39.1997 37.8895 39.0851 37.8895C33.4495 37.8895 27.8143 37.8895 22.1786 37.8895C22.1591 37.8895 22.14 37.8877 22.1204 37.8895C22.0358 37.898 21.9904 37.8664 22.0017 37.7712C22.0045 37.7481 22.0017 37.7245 22.0017 37.7009C22.0017 31.8653 22.0017 26.0293 22.0017 20.1937C22.0026 19.9834 21.9863 20.0013 22.1927 20.0013C25.0056 20.0013 27.8184 20.0013 30.6312 20.0013V20.0008Z" fill="#E4E4E4"/>
<path d="M49.5715 37.8886C46.7682 37.8886 43.9649 37.8886 41.1612 37.8886C41.1257 37.8886 41.0902 37.8867 41.0548 37.8886C40.9861 37.8928 40.9515 37.8636 40.9561 37.7891C40.9579 37.7556 40.9561 37.7222 40.9561 37.6887C40.9561 31.8592 40.9561 26.0297 40.9561 20.2003C40.9561 19.9763 40.9488 20.0013 41.1512 20.0013C46.7709 20.0013 52.3906 20.0013 58.0099 20.0013C58.0226 20.0013 58.0358 20.0013 58.0486 20.0013C58.1556 20.0013 58.2091 20.0557 58.2091 20.1644C58.2091 26.0175 58.2091 31.8701 58.2091 37.7231C58.2091 37.8331 58.1557 37.8881 58.049 37.8881C55.223 37.8881 52.397 37.8881 49.571 37.8881L49.5715 37.8886Z" fill="#E4E4E4"/>
<path d="M22.0045 48.5881C22.0045 45.6752 22.0045 42.7619 22.0045 39.849C22.0045 39.8123 22.0058 39.7755 22.0045 39.7387C22.0026 39.6803 22.029 39.652 22.0854 39.6524C22.1177 39.6524 22.15 39.652 22.1823 39.652C27.8147 39.652 33.4472 39.652 39.0797 39.652C39.1056 39.652 39.1315 39.6538 39.157 39.652C39.2261 39.6472 39.2598 39.6784 39.2552 39.7519C39.2534 39.7821 39.2552 39.8123 39.2552 39.842C39.2552 45.6748 39.2552 51.5075 39.2552 57.3403C39.2552 57.4714 39.1924 57.5369 39.0669 57.5369C33.4408 57.5369 27.8147 57.5369 22.1886 57.5369C22.0655 57.5369 22.004 57.4737 22.004 57.3474C22.004 54.4275 22.004 51.508 22.004 48.5881H22.0045Z" fill="#E4E4E4"/>
<path d="M58.2082 39.8415V42.8081C58.0181 42.6167 57.8271 42.4262 57.6343 42.2367C57.184 41.7939 56.6033 41.5502 56.0002 41.5502C54.7969 41.5502 53.7786 42.5172 53.6317 43.7992C53.6149 43.9472 53.6054 44.0891 53.6004 44.2249C52.3261 44.4644 51.155 44.919 50.1095 45.5805C48.8379 46.3853 47.7482 47.4985 46.871 48.8894C45.1874 51.5594 44.7435 54.5298 45.5667 57.5369H41.1612C41.1257 57.5369 41.0902 57.5346 41.0548 57.5369C40.9847 57.5421 40.9524 57.5105 40.9565 57.4374C40.9584 57.404 40.9565 57.3705 40.9565 57.337V39.8481C40.9565 39.717 41.0193 39.6513 41.1448 39.651H58.024C58.1468 39.651 58.2082 39.7145 58.2082 39.8415Z" fill="#E4E4E4"/>
<path d="M58.2082 51.3788V57.3809C58.2082 57.5364 58.2082 57.5369 58.0595 57.5369H51.5716C51.5716 57.13 51.4961 56.7109 51.3383 56.2983C51.1482 55.8023 51.0681 55.3337 51.0863 54.8235L51.0895 54.732L51.0841 54.641C51.0418 53.9102 51.2373 53.1629 51.6657 52.4194C52.1796 51.5273 52.8268 50.9102 53.654 50.5367C53.8086 51.4014 54.3285 52.0865 55.103 52.417C55.3995 52.5439 55.7083 52.608 56.0207 52.608C56.4764 52.608 57.1536 52.4694 57.7912 51.8102C57.923 51.6735 58.0627 51.5297 58.2082 51.3788Z" fill="#E4E4E4"/>
<path d="M61.7214 54.5317C61.7391 53.9385 61.6004 53.1662 61.3189 52.4137C61.0633 51.7305 61.3289 51.0818 61.9342 50.8291C62.5068 50.59 63.1267 50.8592 63.3809 51.5452C64.4187 54.3464 64.154 57.0428 62.57 59.5389C61.1138 61.8336 59.0341 63.1604 56.3718 63.4583C55.5605 63.5493 55.5627 63.5649 55.5605 64.3994C55.5596 64.729 55.5796 65.0609 55.5459 65.3872C55.4882 65.9483 54.9647 66.2 54.5736 65.8153C53.5571 64.8148 52.5762 63.7752 51.5948 62.7374C51.3428 62.471 51.3997 62.1594 51.6412 61.9062C52.5876 60.9142 53.5399 59.9274 54.4935 58.9424C54.6759 58.7538 54.8969 58.6543 55.1571 58.7529C55.4422 58.8609 55.5432 59.1056 55.5509 59.3955C55.5618 59.8024 55.5755 60.2103 55.5564 60.6162C55.5354 61.0627 55.7324 61.199 56.1339 61.1556C57.6256 60.9939 58.9095 60.3574 59.9445 59.2522C61.1106 58.0075 61.73 56.5006 61.72 54.5307L61.7214 54.5317Z" fill="#E4E4E4"/>
<path d="M49.2681 54.7547C49.2399 55.5468 49.3736 56.2809 49.6474 56.9947C49.9139 57.6906 49.6724 58.3295 49.0744 58.5954C48.4873 58.8566 47.8474 58.578 47.5863 57.8651C46.5676 55.0823 46.8296 52.4029 48.394 49.9219C49.8561 47.6031 51.9536 46.2731 54.6359 45.9756C55.419 45.8888 55.4163 45.8704 55.4195 45.0679C55.4208 44.719 55.399 44.3668 55.4386 44.0227C55.4991 43.4965 56.0171 43.2461 56.3832 43.6063C57.4137 44.6191 58.4088 45.671 59.4006 46.7252C59.6539 46.9944 59.5584 47.3061 59.3206 47.5546C58.3856 48.5315 57.4469 49.5042 56.5073 50.4764C56.3099 50.6805 56.0766 50.7946 55.7965 50.6749C55.5159 50.5551 55.4322 50.301 55.4263 50.0139C55.4181 49.6263 55.4013 49.2373 55.4236 48.8512C55.4513 48.3764 55.2453 48.2279 54.8178 48.2849C52.7554 48.5588 51.1682 49.607 50.1045 51.4538C49.5201 52.4679 49.2008 53.5792 49.269 54.7556L49.2681 54.7547Z" fill="#E4E4E4"/>
</svg>
