<svg width="86" height="86" viewBox="0 0 86 86" fill="none" xmlns="http://www.w3.org/2000/svg">
<circle cx="43" cy="43" r="43" fill="#002ACE"/>
<path d="M57.2407 53.1385C56.9918 48.8854 55.1789 45.3762 51.5957 42.7483C48.8976 40.7699 45.7987 39.8645 42.3808 39.9938C34.6654 40.2855 28.7014 46.4627 28.7194 53.2616C26.2236 52.8628 24.234 51.746 22.9633 49.6748C20.8569 46.2432 22.3336 41.8162 26.14 40.0402C26.4515 39.8948 26.5522 39.7503 26.537 39.4167C26.386 35.9584 29.6567 33.2145 33.3226 33.7141C33.6293 33.756 33.7889 33.6953 33.9484 33.4286C36.2638 29.5716 40.8442 27.4539 45.3923 28.122C50.1417 28.8187 53.8455 32.1521 54.7734 36.5685C54.8246 36.8129 54.875 37.06 54.8883 37.3071C54.9101 37.7352 55.1314 37.886 55.5806 37.878C57.6272 37.8441 59.4743 38.4167 61.0176 39.678C63.5314 41.7314 64.5201 44.3504 63.7385 47.3886C62.9493 50.4562 60.7052 52.2759 57.5028 53.0956C57.4296 53.1144 57.3527 53.1206 57.2416 53.1376L57.2407 53.1385Z" fill="#E4E4E4"/>
<path d="M42.9629 58.9883C39.8403 58.9883 36.7187 58.9713 33.597 58.9999C32.7812 59.007 32.3149 58.7323 31.9873 58.0187C29.0879 51.6979 32.767 44.3825 39.8147 42.5057C46.5851 40.703 53.7049 44.998 54.8094 51.5328C55.1998 53.8414 54.9111 56.0527 53.9148 58.1917C53.6575 58.7439 53.2529 58.9954 52.6099 58.9927C49.3943 58.9829 46.1786 58.9883 42.9629 58.9883ZM38.5582 56.8671C38.581 56.7859 38.5962 56.7297 38.6124 56.6744C39.1461 54.8377 40.394 53.7415 42.4055 53.4096C42.604 53.3766 42.8205 53.217 42.9487 53.06C44.2659 51.4419 45.5689 49.8131 46.8709 48.1825C47.0941 47.9033 47.3382 47.6794 47.7304 47.8578C48.097 48.0246 48.078 48.3243 48.002 48.6534C47.5376 50.6863 47.0837 52.721 46.6354 54.7566C46.6069 54.8859 46.6145 55.0474 46.6715 55.1651C46.9384 55.7199 47.229 56.2641 47.5433 56.876C48.909 56.876 50.3744 56.8831 51.8407 56.8617C51.9585 56.8599 52.1303 56.6771 52.1797 56.5468C52.8312 54.8154 52.9044 53.0528 52.4561 51.2679C51.287 46.617 46.3154 43.486 41.4273 44.3227C36.4433 45.1755 32.9987 49.2636 33.2656 54.0278C33.3207 55.0072 33.5239 55.9635 33.9399 56.8671H38.5582Z" fill="#E4E4E4"/>
<path d="M42.9734 46.6839V48.7373C40.0455 49.0352 38.4072 50.5561 38.0777 53.3338H35.9143C35.7604 50.0646 38.8042 46.6723 42.9724 46.6839H42.9734Z" fill="#E4E4E4"/>
</svg>
