<svg width="86" height="86" viewBox="0 0 86 86" fill="none" xmlns="http://www.w3.org/2000/svg">
<circle cx="43" cy="43" r="43" fill="#002ACE"/>
<path d="M34.7682 42.6129C39.4995 47.407 47.4875 47.4383 52.2557 42.6033C53.6386 43.5725 54.7779 44.7518 55.6976 46.1171C57.0986 48.1975 57.8098 50.4743 57.911 52.929C57.9796 54.599 57.2684 55.9233 55.9361 56.9816C54.3395 58.2506 52.4221 58.876 50.4163 59.2752C45.1033 60.3318 39.8118 60.3014 34.6138 58.7301C33.4153 58.3677 32.2605 57.7552 31.2285 57.0698C29.704 56.0564 28.9928 54.5917 29.0966 52.8024C29.3274 48.8092 31.0586 45.5158 34.3101 42.9191C34.4533 42.8045 34.6172 42.7131 34.7673 42.6129H34.7682Z" fill="#E4E4E4"/>
<path d="M43.5231 43.6559C38.5961 43.6743 34.6043 39.9577 34.5957 35.3448C34.5872 30.7231 38.5438 27.0072 43.4828 27C48.4277 26.9928 52.3998 30.6878 52.4093 35.3063C52.4195 39.9256 48.4689 43.6375 43.5231 43.6559Z" fill="#E4E4E4"/>
<path d="M17.8769 34.3555C17.8769 30.8 20.9096 27.9524 24.7213 27.93C28.5261 27.9075 31.6506 30.808 31.6463 34.3587C31.642 37.9054 28.4918 40.8332 24.7178 40.7971C20.9122 40.761 17.8769 37.9022 17.8769 34.3555Z" fill="#E4E4E4"/>
<path d="M69.1289 34.3763C69.1161 37.9246 66.0576 40.7859 62.2657 40.7971C58.4806 40.8083 55.3441 37.8741 55.3596 34.3371C55.375 30.8056 58.454 27.9388 62.2434 27.9284C66.0662 27.9179 69.141 30.7976 69.1289 34.3763Z" fill="#E4E4E4"/>
<path d="M60.6305 52.1434C60.1913 47.4687 57.9873 43.6094 53.9964 40.5838C54.2031 40.3594 54.3919 40.1541 54.6287 39.8968C56.6293 42.111 59.1326 43.3481 62.2254 43.3529C65.3233 43.3577 67.8455 42.1559 69.8556 39.9072C71.2926 41.2404 72.2165 42.7917 72.6832 44.5722C72.8505 45.2088 72.9174 45.8726 72.9792 46.5275C73.1517 48.3482 72.2406 49.6493 70.632 50.5552C68.8716 51.5469 66.9035 51.9678 64.8892 52.1217C63.4925 52.2284 62.0787 52.1426 60.6305 52.1426V52.1434Z" fill="#E4E4E4"/>
<path d="M17.1769 39.9529C21.2279 44.5153 28.3897 44.4736 32.3781 39.9208C32.5788 40.1229 32.7753 40.3193 33.0241 40.5694C29.0434 43.5757 26.812 47.4415 26.3762 52.1506C24.9795 52.1506 23.6 52.2765 22.2591 52.1177C20.7226 51.9349 19.1603 51.6487 17.7156 51.1429C14.6855 50.0822 13.5745 48.3434 14.1433 45.3427C14.5337 43.2863 15.7699 41.0047 17.1769 39.9521V39.9529Z" fill="#E4E4E4"/>
</svg>
