<svg width="86" height="86" viewBox="0 0 86 86" fill="none" xmlns="http://www.w3.org/2000/svg">
<circle cx="43" cy="43" r="43" fill="#002ACE"/>
<path d="M58.392 55.3786C58.392 55.5258 58.392 55.6566 58.392 55.7875C58.392 57.6464 58.3962 59.5053 58.3912 61.3641C58.3869 62.9507 57.341 63.9681 55.7167 63.9795C55.6298 63.9795 55.542 63.9795 55.455 63.9795C44.2912 63.9795 33.1266 63.9599 21.9628 64C20.2077 64.0065 18.9397 62.9008 19.0022 61.1139C19.0849 58.7676 19.0208 56.4164 19.0233 54.0676C19.025 52.3903 20.0532 51.4015 21.7991 51.4015C29.8232 51.4007 37.8474 51.4032 45.8716 51.395C46.2118 51.395 46.444 51.4825 46.6753 51.7376C48.7284 54.0014 51.2205 55.6525 54.1305 56.7206C54.5509 56.8752 54.9147 56.8948 55.3267 56.7075C56.3161 56.2577 57.3216 55.839 58.392 55.3769V55.3786ZM24.4668 57.7134C24.4668 57.1557 24.471 56.5979 24.4659 56.0402C24.46 55.444 24.1409 55.0735 23.6394 55.0662C23.1363 55.0596 22.7969 55.4317 22.7935 56.0189C22.7868 57.1344 22.7868 58.2507 22.7935 59.3662C22.7969 59.9518 23.1422 60.3255 23.6437 60.3157C24.1274 60.3059 24.4549 59.9428 24.4642 59.3867C24.4735 58.8289 24.4659 58.2712 24.4668 57.7134ZM28.2361 57.7347C28.2361 57.145 28.2446 56.5562 28.2336 55.9666C28.2235 55.4219 27.8765 55.0621 27.3919 55.0653C26.9074 55.0694 26.568 55.4284 26.5638 55.978C26.5553 57.123 26.5545 58.2679 26.5638 59.4128C26.568 59.9567 26.9209 60.319 27.4037 60.3149C27.8858 60.3108 28.2235 59.9485 28.2336 59.4014C28.2437 58.8461 28.2361 58.29 28.2361 57.7347ZM30.3306 57.6619C30.3306 58.2368 30.3239 58.8117 30.3323 59.3867C30.3407 59.9436 30.6674 60.3059 31.1512 60.3157C31.6358 60.3263 31.9971 59.9624 32.0021 59.4177C32.0123 58.2679 32.0123 57.1189 32.0021 55.969C31.9971 55.4219 31.6425 55.0596 31.1571 55.0662C30.6717 55.0727 30.3416 55.4333 30.3323 55.9886C30.3239 56.5464 30.3306 57.1041 30.3306 57.6619Z" fill="#E4E4E4"/>
<path d="M58.392 31.3863C57.5157 31.0485 56.7196 30.7574 55.9371 30.4344C55.1199 30.0966 54.3356 30.1162 53.5083 30.4417C50.3788 31.6742 47.2384 32.8804 44.0971 34.0851C43.4107 34.3484 42.835 34.7083 42.4593 35.3519C42.385 35.4786 42.1292 35.5678 41.957 35.5686C40.0204 35.5833 38.0838 35.5784 36.1463 35.5784C31.3825 35.5784 26.6195 35.5784 21.8556 35.5784C20.0169 35.5784 19.0225 34.6069 19.0216 32.8134C19.0216 30.4303 19.0199 28.0463 19.0216 25.6632C19.0242 24.0104 20.0558 23.0012 21.7526 23.0012C33.0591 22.9996 44.3664 22.9996 55.6728 23.0012C57.3435 23.0012 58.387 24.0104 58.3912 25.624C58.3962 27.5156 58.392 29.4072 58.392 31.3863ZM26.5612 29.2894C26.5612 29.8619 26.5536 30.4344 26.5638 31.0068C26.573 31.5523 26.9158 31.9146 27.3987 31.9146C27.8816 31.9146 28.2294 31.5523 28.2336 31.0068C28.2429 29.8619 28.2429 28.7169 28.2336 27.572C28.2294 27.0257 27.8816 26.665 27.3987 26.665C26.915 26.665 26.5739 27.0265 26.5646 27.572C26.5545 28.1445 26.5621 28.7169 26.5621 29.2894H26.5612ZM30.3315 29.2567C30.3315 29.8488 30.3222 30.4401 30.334 31.0314C30.345 31.5507 30.6801 31.9015 31.147 31.9138C31.6315 31.9269 31.9971 31.5629 32.0021 31.0199C32.0131 29.8701 32.0123 28.721 32.0021 27.5712C31.9979 27.0232 31.6459 26.6601 31.1613 26.6642C30.6759 26.6683 30.3416 27.0298 30.3323 27.5826C30.323 28.1404 30.3306 28.6981 30.3306 29.2559L30.3315 29.2567ZM24.4668 29.3115C24.4668 28.7366 24.4744 28.1616 24.4651 27.5875C24.4558 27.0322 24.1249 26.6716 23.6394 26.665C23.154 26.6585 22.7994 27.0216 22.7952 27.5679C22.7859 28.7178 22.7851 29.8668 22.7952 31.0166C22.8003 31.5613 23.1591 31.9244 23.6453 31.9146C24.1291 31.9048 24.4566 31.5417 24.4651 30.9856C24.4735 30.4278 24.4668 29.8701 24.4668 29.3123V29.3115Z" fill="#E4E4E4"/>
<path d="M65.9992 39.6372C65.9173 46.4464 61.6042 52.5808 55.0768 55.0416C54.8379 55.1316 54.4876 55.1005 54.2453 55.0007C48.7622 52.7296 45.3676 48.7354 43.9569 43.153C43.4031 40.9613 43.3711 38.7393 43.8312 36.5164C43.9189 36.092 44.1334 35.8278 44.5487 35.6676C47.7685 34.4261 50.9807 33.1659 54.2081 31.9432C54.5137 31.8279 54.9468 31.8287 55.2524 31.9449C58.4629 33.1626 61.6574 34.4196 64.862 35.6512C65.3196 35.827 65.5711 36.1035 65.6252 36.5745C65.7425 37.5968 65.8742 38.6174 66 39.6381L65.9992 39.6372Z" fill="#E4E4E4"/>
<path d="M42.0051 37.201C41.4572 41.7726 42.4821 45.9205 45.0755 49.779H44.4246C36.9213 49.779 29.4189 49.779 21.9156 49.779C20.0009 49.779 19.0225 48.8278 19.0225 46.969C19.0225 44.6022 19.0208 42.2363 19.0225 39.8695C19.0242 38.2126 20.0516 37.2026 21.745 37.2018C28.3231 37.1993 34.9011 37.201 41.48 37.201C41.6345 37.201 41.789 37.201 42.0051 37.201ZM22.7919 43.4515C22.7919 44.0428 22.7826 44.6349 22.7944 45.2262C22.8045 45.7471 23.1363 46.098 23.6023 46.1143C24.0852 46.1307 24.4575 45.7651 24.4625 45.2262C24.4735 44.0763 24.4727 42.9273 24.4625 41.7775C24.4583 41.2271 24.1122 40.8648 23.6276 40.8648C23.143 40.8648 22.8028 41.2279 22.7927 41.7775C22.7826 42.3352 22.7902 42.893 22.791 43.4507L22.7919 43.4515ZM26.5612 43.4605C26.5612 44.0502 26.5519 44.6398 26.5638 45.2286C26.5747 45.7668 26.9361 46.1291 27.4198 46.1152C27.8849 46.1013 28.2268 45.752 28.2319 45.236C28.2429 44.0739 28.2429 42.9126 28.2319 41.7505C28.2268 41.2132 27.8588 40.8509 27.375 40.8648C26.909 40.8779 26.5747 41.2263 26.5638 41.7431C26.5511 42.3156 26.5612 42.8881 26.5604 43.4605H26.5612ZM32.0055 43.5349C32.0055 42.9453 32.014 42.3565 32.003 41.7668C31.9929 41.2222 31.6459 40.8615 31.1622 40.8648C30.6776 40.868 30.3374 41.2279 30.334 41.7775C30.3255 42.9224 30.3247 44.0673 30.334 45.2123C30.3382 45.7561 30.6902 46.1184 31.1731 46.1152C31.6552 46.1119 31.9937 45.7496 32.0038 45.2017C32.014 44.6464 32.0064 44.0902 32.0064 43.5349H32.0055Z" fill="#E4E4E4"/>
</svg>
