<svg width="86" height="87" viewBox="0 0 86 87" fill="none" xmlns="http://www.w3.org/2000/svg">
<circle cx="43" cy="43.5" r="43" fill="#002ACE"/>
<path d="M45.4647 22.5666C45.5534 22.6215 45.619 22.7141 45.648 22.8514C45.7025 23.1113 45.636 23.3763 45.6258 23.6362C45.613 23.9664 45.6301 24.2983 45.6837 24.6242C45.7852 25.24 46.0195 25.8258 46.3621 26.3456C46.7217 26.8928 47.1888 27.3603 47.7001 27.7642C51.1661 30.4977 54.6107 33.2594 58.0707 35.9998C58.79 36.5693 59.1829 37.2494 58.9161 38.1809C58.842 38.4407 58.6928 38.6955 58.5241 38.909C58.0051 39.5652 57.4682 40.2076 56.9236 40.8423C55.976 41.9453 54.5519 42.2309 53.2617 41.5722C52.7674 41.32 52.2833 41.0438 51.8112 40.7505C50.9649 40.2256 50.0514 40.0275 49.0952 40.2711C47.2953 40.7291 45.7528 40.2496 44.3679 39.084C44.2682 39 44.16 38.9271 44.0057 38.8996C44.5102 39.5592 45.0148 40.2187 45.5201 40.8774C46.2675 41.8509 46.9757 42.8587 47.7742 43.7876C48.5608 44.7045 49.4284 45.5519 50.2797 46.4113C50.8482 46.9851 51.449 47.5271 52.0387 48.0795C52.7716 48.7665 53.1253 49.631 53.1432 50.6199C53.1671 51.9056 53.144 53.193 53.1398 54.4795C53.1398 54.5602 53.1219 54.6408 53.11 54.7377H29.6808C29.6706 54.6391 29.6501 54.5336 29.651 54.4289C29.6783 51.0308 29.6697 47.6317 29.7473 44.2353C29.8334 40.4855 30.3984 36.8077 31.6503 33.2577C32.223 31.6341 33.0599 30.1623 34.2001 28.8715C35.3336 27.5884 36.7252 26.8962 38.4612 26.9717C40.1452 27.0455 41.3741 26.3285 42.1385 24.8052C42.4436 24.1971 42.914 23.6816 43.4654 23.2897C43.9145 22.9697 44.4531 22.6824 44.9841 22.5332C45.1622 22.4834 45.3369 22.486 45.4647 22.5658V22.5666Z" fill="#E4E4E4"/>
<path d="M41.6613 65.5C37.2988 65.5 32.9363 65.5 28.5738 65.5C27.2273 65.5 26.635 64.5462 27.2324 63.3395C28.0488 61.6901 28.8797 60.0477 29.6834 58.3915C29.9996 57.7405 30.4691 57.4369 31.1961 57.4377C38.1706 57.4472 45.1451 57.4472 52.1197 57.4377C52.8236 57.4369 53.3017 57.7113 53.6136 58.352C54.4317 60.0322 55.2746 61.7004 56.1021 63.3755C56.6756 64.5377 56.0816 65.4991 54.7914 65.4991C50.4152 65.5009 46.0383 65.4991 41.6621 65.4991L41.6613 65.5Z" fill="#E4E4E4"/>
</svg>
